<?xml version="1.0" encoding="us-ascii" standalone="no"?><svg xmlns="http://www.w3.org/2000/svg" xmlns:xlink="http://www.w3.org/1999/xlink" contentStyleType="text/css" height="1513.5417px" preserveAspectRatio="none" style="width:2150px;height:1513px;" version="1.1" viewBox="0 0 2150 1513" width="2150px" zoomAndPan="magnify"><defs><linearGradient id="g19ll4ctuldpxq0" x1="50%" x2="50%" y1="0%" y2="100%"><stop offset="0%" stop-color="#B8B8B8"/><stop offset="100%" stop-color="#999999"/></linearGradient><linearGradient id="g19ll4ctuldpxq1" x1="50%" x2="50%" y1="0%" y2="100%"><stop offset="0%" stop-color="#7C9AB9"/><stop offset="100%" stop-color="#304D6D"/></linearGradient><linearGradient id="g19ll4ctuldpxq2" x1="50%" x2="50%" y1="0%" y2="100%"><stop offset="0%" stop-color="#B8B8B8"/><stop offset="100%" stop-color="#6B6B6B"/></linearGradient></defs><g><rect fill="url(#g19ll4ctuldpxq0)" height="48.2361" id="_title" rx="4.1667" ry="4.1667" style="stroke:#6B6B6B;stroke-width:1.0416666666666667;" width="361.4583" x="892.7083" y="20.8333"/><text fill="#304D6D" font-family="Verdana" font-size="20.8333" font-weight="bold" lengthAdjust="spacing" textLength="338.5417" x="904.1667" y="53.2369">Flujo general de StatCalc Pro</text><ellipse cx="1075" cy="90.9444" fill="#3399F3" rx="10.4167" ry="10.4167" style="stroke:#304D6D;stroke-width:1.0416666666666667;"/><rect fill="url(#g19ll4ctuldpxq1)" height="38.1083" rx="4.1667" ry="4.1667" style="stroke:#304D6D;stroke-width:1.0416666666666667;" width="320.8333" x="914.5833" y="122.1944"/><text fill="#FFFFFF" font-family="Verdana" font-size="12.5" lengthAdjust="spacing" textLength="297.9167" x="926.0417" y="146.2199">Usuario introduce datos o selecciona ejemplo</text><rect fill="url(#g19ll4ctuldpxq1)" height="38.1083" rx="4.1667" ry="4.1667" style="stroke:#304D6D;stroke-width:1.0416666666666667;" width="185.4167" x="982.2917" y="181.1361"/><text fill="#FFFFFF" font-family="Verdana" font-size="12.5" lengthAdjust="spacing" textLength="162.5" x="993.75" y="205.1615">Presiona bot&#243;n 'Calcular'</text><rect fill="none" height="214.9333" rx="4.1667" ry="4.1667" style="stroke:#446E9B;stroke-width:1.0416666666666667;" width="270.8333" x="939.5833" y="229.6611"/><path d="M1007.2917,229.6611 L1007.2917,247.9777 L996.875,258.3944 L939.5833,258.3944 " fill="none" style="stroke:#446E9B;stroke-width:1.0416666666666667;"/><text fill="#446E9B" font-family="Verdana" font-size="12.5" lengthAdjust="spacing" textLength="46.875" x="947.9167" y="248.4782">main.js</text><rect fill="url(#g19ll4ctuldpxq1)" height="38.1083" rx="4.1667" ry="4.1667" style="stroke:#304D6D;stroke-width:1.0416666666666667;" width="218.75" x="965.625" y="276.1027"/><text fill="#FFFFFF" font-family="Verdana" font-size="12.5" lengthAdjust="spacing" textLength="195.8333" x="977.0833" y="300.1282">Lee datos del campo de texto</text><rect fill="url(#g19ll4ctuldpxq1)" height="38.1083" rx="4.1667" ry="4.1667" style="stroke:#304D6D;stroke-width:1.0416666666666667;" width="217.7083" x="966.1458" y="335.0444"/><text fill="#FFFFFF" font-family="Verdana" font-size="12.5" lengthAdjust="spacing" textLength="194.7917" x="977.6042" y="359.0698">Obtiene m&#233;todo seleccionado</text><rect fill="url(#g19ll4ctuldpxq1)" height="38.1083" rx="4.1667" ry="4.1667" style="stroke:#304D6D;stroke-width:1.0416666666666667;" width="250" x="950" y="393.986"/><text fill="#FFFFFF" font-family="Verdana" font-size="12.5" lengthAdjust="spacing" textLength="227.0833" x="961.4583" y="418.0115">Llama a validarGruposPorMetodo()</text><polygon fill="url(#g19ll4ctuldpxq2)" points="1008.3333,465.4277,1141.6667,465.4277,1154.1667,478.2318,1141.6667,491.036,1008.3333,491.036,995.8333,478.2318,1008.3333,465.4277" style="stroke:#6B6B6B;stroke-width:1.0416666666666667;"/><text fill="#FFFFFF" font-family="Verdana" font-size="12.5" lengthAdjust="spacing" textLength="122.9167" x="1013.5417" y="483.2031">Validaci&#243;n correcta</text><text fill="#FFFFFF" font-family="Verdana" font-size="12.5" lengthAdjust="spacing" textLength="11.4583" x="979.1667" y="470.399">S&#237;</text><text fill="#FFFFFF" font-family="Verdana" font-size="12.5" lengthAdjust="spacing" textLength="17.7083" x="1159.375" y="470.399">No</text><rect fill="url(#g19ll4ctuldpxq1)" height="38.1083" rx="4.1667" ry="4.1667" style="stroke:#304D6D;stroke-width:1.0416666666666667;" width="235.4167" x="827.8646" y="501.4526"/><text fill="#FFFFFF" font-family="Verdana" font-size="12.5" lengthAdjust="spacing" textLength="212.5" x="839.3229" y="525.4781">Determina el m&#233;todo estad&#237;stico</text><rect fill="url(#g19ll4ctuldpxq1)" height="38.1083" rx="4.1667" ry="4.1667" style="stroke:#304D6D;stroke-width:1.0416666666666667;" width="157.2917" x="1125.7813" y="501.4526"/><text fill="#FFFFFF" font-family="Verdana" font-size="12.5" lengthAdjust="spacing" textLength="134.375" x="1137.2396" y="525.4781">Muestra advertencia</text><rect fill="url(#g19ll4ctuldpxq1)" height="38.1083" rx="4.1667" ry="4.1667" style="stroke:#304D6D;stroke-width:1.0416666666666667;" width="240.625" x="1084.1146" y="560.3943"/><text fill="#FFFFFF" font-family="Verdana" font-size="12.5" lengthAdjust="spacing" textLength="217.7083" x="1095.5729" y="584.4198">Esperar nueva acci&#243;n del usuario</text><ellipse cx="1204.4271" cy="630.7943" fill="none" rx="11.4583" ry="11.4583" style="stroke:#304D6D;stroke-width:1.0416666666666667;"/><ellipse cx="1204.4271" cy="630.7943" fill="none" rx="6.25" ry="6.25" style="stroke:#304D6D;stroke-width:1.0416666666666667;"/><rect fill="none" height="255.277" rx="4.1667" ry="4.1667" style="stroke:#446E9B;stroke-width:1.0416666666666667;" width="2127.0833" x="11.4583" y="652.6693"/><path d="M98.9583,652.6693 L98.9583,670.9859 L88.5417,681.4026 L11.4583,681.4026 " fill="none" style="stroke:#446E9B;stroke-width:1.0416666666666667;"/><text fill="#446E9B" font-family="Verdana" font-size="12.5" lengthAdjust="spacing" textLength="66.6667" x="19.7917" y="671.4864">calculos.js</text><polygon fill="url(#g19ll4ctuldpxq2)" points="1045.3125,699.1109,1104.6875,699.1109,1117.1875,711.9151,1104.6875,724.7192,1045.3125,724.7192,1032.8125,711.9151,1045.3125,699.1109" style="stroke:#6B6B6B;stroke-width:1.0416666666666667;"/><text fill="#FFFFFF" font-family="Verdana" font-size="12.5" lengthAdjust="spacing" textLength="48.9583" x="1050.5208" y="716.8864">M&#233;todo</text><rect fill="url(#g19ll4ctuldpxq1)" height="38.1083" rx="4.1667" ry="4.1667" style="stroke:#304D6D;stroke-width:1.0416666666666667;" width="107.2917" x="63.0208" y="777.563"/><text fill="#FFFFFF" font-family="Verdana" font-size="12.5" lengthAdjust="spacing" textLength="84.375" x="74.4792" y="801.5884">media(array)</text><rect fill="url(#g19ll4ctuldpxq1)" height="38.1083" rx="4.1667" ry="4.1667" style="stroke:#304D6D;stroke-width:1.0416666666666667;" width="189.5833" x="21.875" y="836.5046"/><text fill="#FFFFFF" font-family="Verdana" font-size="12.5" lengthAdjust="spacing" textLength="166.6667" x="33.3333" y="860.5301">Calcula promedio general</text><rect fill="url(#g19ll4ctuldpxq1)" height="38.1083" rx="4.1667" ry="4.1667" style="stroke:#304D6D;stroke-width:1.0416666666666667;" width="123.9583" x="258.3333" y="777.563"/><text fill="#FFFFFF" font-family="Verdana" font-size="12.5" lengthAdjust="spacing" textLength="101.0417" x="269.7917" y="801.5884">mediana(array)</text><rect fill="url(#g19ll4ctuldpxq1)" height="38.1083" rx="4.1667" ry="4.1667" style="stroke:#304D6D;stroke-width:1.0416666666666667;" width="176.0417" x="232.2917" y="836.5046"/><text fill="#FFFFFF" font-family="Verdana" font-size="12.5" lengthAdjust="spacing" textLength="153.125" x="243.75" y="860.5301">Obtiene el valor central</text><rect fill="url(#g19ll4ctuldpxq1)" height="38.1083" rx="4.1667" ry="4.1667" style="stroke:#304D6D;stroke-width:1.0416666666666667;" width="104.1667" x="493.75" y="777.563"/><text fill="#FFFFFF" font-family="Verdana" font-size="12.5" lengthAdjust="spacing" textLength="81.25" x="505.2083" y="801.5884">moda(array)</text><rect fill="url(#g19ll4ctuldpxq1)" height="38.1083" rx="4.1667" ry="4.1667" style="stroke:#304D6D;stroke-width:1.0416666666666667;" width="233.3333" x="429.1667" y="836.5046"/><text fill="#FFFFFF" font-family="Verdana" font-size="12.5" lengthAdjust="spacing" textLength="210.4167" x="440.625" y="860.5301">Identifica el valor m&#225;s frecuente</text><rect fill="url(#g19ll4ctuldpxq1)" height="38.1083" rx="4.1667" ry="4.1667" style="stroke:#304D6D;stroke-width:1.0416666666666667;" width="123.9583" x="758.3333" y="777.563"/><text fill="#FFFFFF" font-family="Verdana" font-size="12.5" lengthAdjust="spacing" textLength="101.0417" x="769.7917" y="801.5884">varianza(array)</text><rect fill="url(#g19ll4ctuldpxq1)" height="38.1083" rx="4.1667" ry="4.1667" style="stroke:#304D6D;stroke-width:1.0416666666666667;" width="273.9583" x="683.3333" y="836.5046"/><text fill="#FFFFFF" font-family="Verdana" font-size="12.5" lengthAdjust="spacing" textLength="251.0417" x="694.7917" y="860.5301">Mide la dispersi&#243;n respecto a la media</text><rect fill="url(#g19ll4ctuldpxq1)" height="38.1083" rx="4.1667" ry="4.1667" style="stroke:#304D6D;stroke-width:1.0416666666666667;" width="136.4583" x="1016.1458" y="777.563"/><text fill="#FFFFFF" font-family="Verdana" font-size="12.5" lengthAdjust="spacing" textLength="113.5417" x="1027.6042" y="801.5884">desviacion(array)</text><rect fill="url(#g19ll4ctuldpxq1)" height="38.1083" rx="4.1667" ry="4.1667" style="stroke:#304D6D;stroke-width:1.0416666666666667;" width="212.5" x="978.125" y="836.5046"/><text fill="#FFFFFF" font-family="Verdana" font-size="12.5" lengthAdjust="spacing" textLength="189.5833" x="989.5833" y="860.5301">Ra&#237;z cuadrada de la varianza</text><rect fill="url(#g19ll4ctuldpxq1)" height="38.1083" rx="4.1667" ry="4.1667" style="stroke:#304D6D;stroke-width:1.0416666666666667;" width="119.7917" x="1231.7708" y="777.563"/><text fill="#FFFFFF" font-family="Verdana" font-size="12.5" lengthAdjust="spacing" textLength="96.875" x="1243.2292" y="801.5884">anova(grupos)</text><rect fill="url(#g19ll4ctuldpxq1)" height="38.1083" rx="4.1667" ry="4.1667" style="stroke:#304D6D;stroke-width:1.0416666666666667;" width="160.4167" x="1211.4583" y="836.5046"/><text fill="#FFFFFF" font-family="Verdana" font-size="12.5" lengthAdjust="spacing" textLength="137.5" x="1222.9167" y="860.5301">Calcula SSB, SSW y F</text><rect fill="url(#g19ll4ctuldpxq1)" height="38.1083" rx="4.1667" ry="4.1667" style="stroke:#304D6D;stroke-width:1.0416666666666667;" width="148.9583" x="1448.4375" y="777.563"/><text fill="#FFFFFF" font-family="Verdana" font-size="12.5" lengthAdjust="spacing" textLength="126.0417" x="1459.8958" y="801.5884">chiCuadrado(tabla)</text><rect fill="url(#g19ll4ctuldpxq1)" height="38.1083" rx="4.1667" ry="4.1667" style="stroke:#304D6D;stroke-width:1.0416666666666667;" width="260.4167" x="1392.7083" y="836.5046"/><text fill="#FFFFFF" font-family="Verdana" font-size="12.5" lengthAdjust="spacing" textLength="237.5" x="1404.1667" y="860.5301">Eval&#250;a independencia de categor&#237;as</text><rect fill="url(#g19ll4ctuldpxq1)" height="38.1083" rx="4.1667" ry="4.1667" style="stroke:#304D6D;stroke-width:1.0416666666666667;" width="122.9167" x="1691.6667" y="777.563"/><text fill="#FFFFFF" font-family="Verdana" font-size="12.5" lengthAdjust="spacing" textLength="100" x="1703.125" y="801.5884">correlacion(x,y)</text><rect fill="url(#g19ll4ctuldpxq1)" height="38.1083" rx="4.1667" ry="4.1667" style="stroke:#304D6D;stroke-width:1.0416666666666667;" width="158.3333" x="1673.9583" y="836.5046"/><text fill="#FFFFFF" font-family="Verdana" font-size="12.5" lengthAdjust="spacing" textLength="135.4167" x="1685.4167" y="860.5301">Calcula r de Pearson</text><rect fill="url(#g19ll4ctuldpxq1)" height="38.1083" rx="4.1667" ry="4.1667" style="stroke:#304D6D;stroke-width:1.0416666666666667;" width="144.7917" x="1920.8333" y="777.563"/><text fill="#FFFFFF" font-family="Verdana" font-size="12.5" lengthAdjust="spacing" textLength="121.875" x="1932.2917" y="801.5884">pca(componentes)</text><rect fill="url(#g19ll4ctuldpxq1)" height="38.1083" rx="4.1667" ry="4.1667" style="stroke:#304D6D;stroke-width:1.0416666666666667;" width="269.7917" x="1858.3333" y="836.5046"/><text fill="#FFFFFF" font-family="Verdana" font-size="12.5" lengthAdjust="spacing" textLength="246.875" x="1869.7917" y="860.5301">Matriz de covarianzas y determinante</text><rect fill="none" height="247.9853" rx="4.1667" ry="4.1667" style="stroke:#446E9B;stroke-width:1.0416666666666667;" width="1835.4167" x="157.2917" y="918.3629"/><path d="M244.7917,918.3629 L244.7917,936.6796 L234.375,947.0963 L157.2917,947.0963 " fill="none" style="stroke:#446E9B;stroke-width:1.0416666666666667;"/><text fill="#446E9B" font-family="Verdana" font-size="12.5" lengthAdjust="spacing" textLength="66.6667" x="165.625" y="937.1801">graficas.js</text><polygon fill="url(#g19ll4ctuldpxq2)" points="1045.3125,957.5129,1104.6875,957.5129,1117.1875,970.3171,1104.6875,983.1212,1045.3125,983.1212,1032.8125,970.3171,1045.3125,957.5129" style="stroke:#6B6B6B;stroke-width:1.0416666666666667;"/><text fill="#FFFFFF" font-family="Verdana" font-size="12.5" lengthAdjust="spacing" textLength="48.9583" x="1050.5208" y="975.2884">M&#233;todo</text><rect fill="url(#g19ll4ctuldpxq1)" height="38.1083" rx="4.1667" ry="4.1667" style="stroke:#304D6D;stroke-width:1.0416666666666667;" width="123.9583" x="257.8125" y="1035.965"/><text fill="#FFFFFF" font-family="Verdana" font-size="12.5" lengthAdjust="spacing" textLength="101.0417" x="269.2708" y="1059.9904">graficarBasico()</text><rect fill="url(#g19ll4ctuldpxq1)" height="38.1083" rx="4.1667" ry="4.1667" style="stroke:#304D6D;stroke-width:1.0416666666666667;" width="304.1667" x="167.7083" y="1094.9066"/><text fill="#FFFFFF" font-family="Verdana" font-size="12.5" lengthAdjust="spacing" textLength="281.25" x="179.1667" y="1118.9321">Gr&#225;fica de barrayas con l&#237;nea de referencia</text><rect fill="url(#g19ll4ctuldpxq1)" height="38.1083" rx="4.1667" ry="4.1667" style="stroke:#304D6D;stroke-width:1.0416666666666667;" width="139.5833" x="541.1458" y="1035.965"/><text fill="#FFFFFF" font-family="Verdana" font-size="12.5" lengthAdjust="spacing" textLength="116.6667" x="552.6042" y="1059.9904">graficarVarianza()</text><rect fill="url(#g19ll4ctuldpxq1)" height="38.1083" rx="4.1667" ry="4.1667" style="stroke:#304D6D;stroke-width:1.0416666666666667;" width="236.4583" x="492.7083" y="1094.9066"/><text fill="#FFFFFF" font-family="Verdana" font-size="12.5" lengthAdjust="spacing" textLength="213.5417" x="504.1667" y="1118.9321">Puntos con l&#237;neas hacia la media</text><rect fill="url(#g19ll4ctuldpxq1)" height="38.1083" rx="4.1667" ry="4.1667" style="stroke:#304D6D;stroke-width:1.0416666666666667;" width="152.0833" x="792.7083" y="1035.965"/><text fill="#FFFFFF" font-family="Verdana" font-size="12.5" lengthAdjust="spacing" textLength="129.1667" x="804.1667" y="1059.9904">graficarDesviacion()</text><rect fill="url(#g19ll4ctuldpxq1)" height="38.1083" rx="4.1667" ry="4.1667" style="stroke:#304D6D;stroke-width:1.0416666666666667;" width="237.5" x="750" y="1094.9066"/><text fill="#FFFFFF" font-family="Verdana" font-size="12.5" lengthAdjust="spacing" textLength="214.5833" x="761.4583" y="1118.9321">Banda sombreada &#177;1 desviaci&#243;n</text><rect fill="url(#g19ll4ctuldpxq1)" height="38.1083" rx="4.1667" ry="4.1667" style="stroke:#304D6D;stroke-width:1.0416666666666667;" width="122.9167" x="1050.5208" y="1035.965"/><text fill="#FFFFFF" font-family="Verdana" font-size="12.5" lengthAdjust="spacing" textLength="100" x="1061.9792" y="1059.9904">graficarAnova()</text><rect fill="url(#g19ll4ctuldpxq1)" height="38.1083" rx="4.1667" ry="4.1667" style="stroke:#304D6D;stroke-width:1.0416666666666667;" width="207.2917" x="1008.3333" y="1094.9066"/><text fill="#FFFFFF" font-family="Verdana" font-size="12.5" lengthAdjust="spacing" textLength="184.375" x="1019.7917" y="1118.9321">Boxplot comparando grupos</text><rect fill="url(#g19ll4ctuldpxq1)" height="38.1083" rx="4.1667" ry="4.1667" style="stroke:#304D6D;stroke-width:1.0416666666666667;" width="111.4583" x="1300.5208" y="1035.965"/><text fill="#FFFFFF" font-family="Verdana" font-size="12.5" lengthAdjust="spacing" textLength="88.5417" x="1311.9792" y="1059.9904">graficarChi2()</text><rect fill="url(#g19ll4ctuldpxq1)" height="38.1083" rx="4.1667" ry="4.1667" style="stroke:#304D6D;stroke-width:1.0416666666666667;" width="239.5833" x="1236.4583" y="1094.9066"/><text fill="#FFFFFF" font-family="Verdana" font-size="12.5" lengthAdjust="spacing" textLength="216.6667" x="1247.9167" y="1118.9321">Barrayas apiladas de frecuencias</text><rect fill="url(#g19ll4ctuldpxq1)" height="38.1083" rx="4.1667" ry="4.1667" style="stroke:#304D6D;stroke-width:1.0416666666666667;" width="156.25" x="1540.625" y="1035.965"/><text fill="#FFFFFF" font-family="Verdana" font-size="12.5" lengthAdjust="spacing" textLength="133.3333" x="1552.0833" y="1059.9904">graficarCorrelacion()</text><rect fill="url(#g19ll4ctuldpxq1)" height="38.1083" rx="4.1667" ry="4.1667" style="stroke:#304D6D;stroke-width:1.0416666666666667;" width="243.75" x="1496.875" y="1094.9066"/><text fill="#FFFFFF" font-family="Verdana" font-size="12.5" lengthAdjust="spacing" textLength="220.8333" x="1508.3333" y="1118.9321">Dispersi&#243;n con l&#237;nea de tendencia</text><rect fill="url(#g19ll4ctuldpxq1)" height="38.1083" rx="4.1667" ry="4.1667" style="stroke:#304D6D;stroke-width:1.0416666666666667;" width="108.3333" x="1817.7083" y="1035.965"/><text fill="#FFFFFF" font-family="Verdana" font-size="12.5" lengthAdjust="spacing" textLength="85.4167" x="1829.1667" y="1059.9904">graficarPCA()</text><rect fill="url(#g19ll4ctuldpxq1)" height="38.1083" rx="4.1667" ry="4.1667" style="stroke:#304D6D;stroke-width:1.0416666666666667;" width="220.8333" x="1761.4583" y="1094.9066"/><text fill="#FFFFFF" font-family="Verdana" font-size="12.5" lengthAdjust="spacing" textLength="197.9167" x="1772.9167" y="1118.9321">Dispersi&#243;n 2D o 3D interactiva</text><rect fill="url(#g19ll4ctuldpxq1)" height="38.1083" rx="4.1667" ry="4.1667" style="stroke:#304D6D;stroke-width:1.0416666666666667;" width="347.9167" x="901.0417" y="1176.7649"/><text fill="#FFFFFF" font-family="Verdana" font-size="12.5" lengthAdjust="spacing" textLength="325" x="912.5" y="1200.7904">Mostrar resultado num&#233;rico en el cuadro de texto</text><rect fill="url(#g19ll4ctuldpxq1)" height="38.1083" rx="4.1667" ry="4.1667" style="stroke:#304D6D;stroke-width:1.0416666666666667;" width="314.5833" x="917.7083" y="1235.7066"/><text fill="#FFFFFF" font-family="Verdana" font-size="12.5" lengthAdjust="spacing" textLength="291.6667" x="929.1667" y="1259.7321">Renderizar gr&#225;fica 2D (Chart.js) o 3D (Plotly)</text><polygon fill="url(#g19ll4ctuldpxq2)" points="987.5,1294.6482,1162.5,1294.6482,1175,1307.4524,1162.5,1320.2566,987.5,1320.2566,975,1307.4524,987.5,1294.6482" style="stroke:#6B6B6B;stroke-width:1.0416666666666667;"/><text fill="#FFFFFF" font-family="Verdana" font-size="12.5" lengthAdjust="spacing" textLength="164.5833" x="992.7083" y="1312.4237">Usuario desea descargar</text><text fill="#FFFFFF" font-family="Verdana" font-size="12.5" lengthAdjust="spacing" textLength="11.4583" x="958.3333" y="1299.6195">S&#237;</text><text fill="#FFFFFF" font-family="Verdana" font-size="12.5" lengthAdjust="spacing" textLength="17.7083" x="1180.2083" y="1299.6195">No</text><rect fill="#3CB521" height="6.25" rx="2.6042" ry="2.6042" style="stroke:#3CB521;stroke-width:1.0416666666666667;" width="438.5417" x="675.5208" y="1330.6732"/><rect fill="url(#g19ll4ctuldpxq1)" height="38.1083" rx="4.1667" ry="4.1667" style="stroke:#304D6D;stroke-width:1.0416666666666667;" width="201.0417" x="690.1042" y="1357.7566"/><text fill="#FFFFFF" font-family="Verdana" font-size="12.5" lengthAdjust="spacing" textLength="178.125" x="701.5625" y="1381.782">Descargar resultados (TXT)</text><rect fill="url(#g19ll4ctuldpxq1)" height="38.1083" rx="4.1667" ry="4.1667" style="stroke:#304D6D;stroke-width:1.0416666666666667;" width="179.1667" x="920.3125" y="1357.7566"/><text fill="#FFFFFF" font-family="Verdana" font-size="12.5" lengthAdjust="spacing" textLength="156.25" x="931.7708" y="1381.782">Descargar gr&#225;fica (PNG)</text><rect fill="#3CB521" height="6.25" rx="2.6042" ry="2.6042" style="stroke:#3CB521;stroke-width:1.0416666666666667;" width="438.5417" x="675.5208" y="1416.6982"/><rect fill="url(#g19ll4ctuldpxq1)" height="38.1083" rx="4.1667" ry="4.1667" style="stroke:#304D6D;stroke-width:1.0416666666666667;" width="240.625" x="1134.8958" y="1330.6732"/><text fill="#FFFFFF" font-family="Verdana" font-size="12.5" lengthAdjust="spacing" textLength="217.7083" x="1146.3542" y="1354.6987">Esperar nueva acci&#243;n del usuario</text><polygon fill="url(#g19ll4ctuldpxq2)" points="1075,1433.3649,1087.5,1445.8649,1075,1458.3649,1062.5,1445.8649,1075,1433.3649" style="stroke:#6B6B6B;stroke-width:1.0416666666666667;"/><ellipse cx="1075" cy="1490.6565" fill="none" rx="11.4583" ry="11.4583" style="stroke:#304D6D;stroke-width:1.0416666666666667;"/><ellipse cx="1075" cy="1490.6565" fill="none" rx="6.25" ry="6.25" style="stroke:#304D6D;stroke-width:1.0416666666666667;"/><line style="stroke:#446E9B;stroke-width:3.125;" x1="1075" x2="1075" y1="101.3611" y2="122.1944"/><polygon fill="#446E9B" points="1070.8333,111.7778,1075,122.1944,1079.1667,111.7778,1075,115.9444" style="stroke:#446E9B;stroke-width:1.0416666666666667;"/><line style="stroke:#446E9B;stroke-width:3.125;" x1="1075" x2="1075" y1="160.3027" y2="181.1361"/><polygon fill="#446E9B" points="1070.8333,170.7194,1075,181.1361,1079.1667,170.7194,1075,174.8861" style="stroke:#446E9B;stroke-width:1.0416666666666667;"/><line style="stroke:#446E9B;stroke-width:3.125;" x1="1075" x2="1075" y1="314.211" y2="335.0444"/><polygon fill="#446E9B" points="1070.8333,324.6277,1075,335.0444,1079.1667,324.6277,1075,328.7944" style="stroke:#446E9B;stroke-width:1.0416666666666667;"/><line style="stroke:#446E9B;stroke-width:3.125;" x1="1075" x2="1075" y1="373.1527" y2="393.986"/><polygon fill="#446E9B" points="1070.8333,383.5693,1075,393.986,1079.1667,383.5693,1075,387.736" style="stroke:#446E9B;stroke-width:1.0416666666666667;"/><line style="stroke:#446E9B;stroke-width:3.125;" x1="1075" x2="1075" y1="219.2444" y2="276.1027"/><polygon fill="#446E9B" points="1070.8333,265.686,1075,276.1027,1079.1667,265.686,1075,269.8527" style="stroke:#446E9B;stroke-width:1.0416666666666667;"/><line style="stroke:#446E9B;stroke-width:3.125;" x1="1204.4271" x2="1204.4271" y1="539.561" y2="560.3943"/><polygon fill="#446E9B" points="1200.2604,549.9776,1204.4271,560.3943,1208.5938,549.9776,1204.4271,554.1443" style="stroke:#446E9B;stroke-width:1.0416666666666667;"/><line style="stroke:#446E9B;stroke-width:3.125;" x1="1204.4271" x2="1204.4271" y1="598.5026" y2="619.3359"/><polygon fill="#446E9B" points="1200.2604,608.9193,1204.4271,619.3359,1208.5938,608.9193,1204.4271,613.0859" style="stroke:#446E9B;stroke-width:1.0416666666666667;"/><line style="stroke:#446E9B;stroke-width:3.125;" x1="995.8333" x2="945.5729" y1="478.2318" y2="478.2318"/><line style="stroke:#446E9B;stroke-width:3.125;" x1="945.5729" x2="945.5729" y1="478.2318" y2="501.4526"/><polygon fill="#446E9B" points="941.4063,491.036,945.5729,501.4526,949.7396,491.036,945.5729,495.2026" style="stroke:#446E9B;stroke-width:1.0416666666666667;"/><line style="stroke:#446E9B;stroke-width:3.125;" x1="1154.1667" x2="1204.4271" y1="478.2318" y2="478.2318"/><line style="stroke:#446E9B;stroke-width:3.125;" x1="1204.4271" x2="1204.4271" y1="478.2318" y2="501.4526"/><polygon fill="#446E9B" points="1200.2604,491.036,1204.4271,501.4526,1208.5938,491.036,1204.4271,495.2026" style="stroke:#446E9B;stroke-width:1.0416666666666667;"/><line style="stroke:#446E9B;stroke-width:3.125;" x1="945.5729" x2="945.5729" y1="539.561" y2="647.4609"/><line style="stroke:#446E9B;stroke-width:3.125;" x1="945.5729" x2="1075" y1="647.4609" y2="647.4609"/><line style="stroke:#446E9B;stroke-width:3.125;" x1="1075" x2="1075" y1="647.4609" y2="699.1109"/><polygon fill="#446E9B" points="1070.8333,688.6943,1075,699.1109,1079.1667,688.6943,1075,692.8609" style="stroke:#446E9B;stroke-width:1.0416666666666667;"/><line style="stroke:#446E9B;stroke-width:3.125;" x1="1075" x2="1075" y1="432.0943" y2="465.4277"/><polygon fill="#446E9B" points="1070.8333,455.011,1075,465.4277,1079.1667,455.011,1075,459.1777" style="stroke:#446E9B;stroke-width:1.0416666666666667;"/><line style="stroke:#446E9B;stroke-width:3.125;" x1="116.6667" x2="116.6667" y1="815.6713" y2="836.5046"/><polygon fill="#446E9B" points="112.5,826.088,116.6667,836.5046,120.8333,826.088,116.6667,830.2546" style="stroke:#446E9B;stroke-width:1.0416666666666667;"/><line style="stroke:#446E9B;stroke-width:3.125;" x1="116.6667" x2="116.6667" y1="874.6129" y2="895.4463"/><polygon fill="#446E9B" points="112.5,885.0296,116.6667,895.4463,120.8333,885.0296,116.6667,889.1963" style="stroke:#446E9B;stroke-width:1.0416666666666667;"/><line style="stroke:#446E9B;stroke-width:3.125;" x1="320.3125" x2="320.3125" y1="815.6713" y2="836.5046"/><polygon fill="#446E9B" points="316.1458,826.088,320.3125,836.5046,324.4792,826.088,320.3125,830.2546" style="stroke:#446E9B;stroke-width:1.0416666666666667;"/><line style="stroke:#446E9B;stroke-width:3.125;" x1="320.3125" x2="320.3125" y1="874.6129" y2="895.4463"/><polygon fill="#446E9B" points="316.1458,885.0296,320.3125,895.4463,324.4792,885.0296,320.3125,889.1963" style="stroke:#446E9B;stroke-width:1.0416666666666667;"/><line style="stroke:#446E9B;stroke-width:3.125;" x1="545.8333" x2="545.8333" y1="815.6713" y2="836.5046"/><polygon fill="#446E9B" points="541.6667,826.088,545.8333,836.5046,550,826.088,545.8333,830.2546" style="stroke:#446E9B;stroke-width:1.0416666666666667;"/><line style="stroke:#446E9B;stroke-width:3.125;" x1="545.8333" x2="545.8333" y1="874.6129" y2="895.4463"/><polygon fill="#446E9B" points="541.6667,885.0296,545.8333,895.4463,550,885.0296,545.8333,889.1963" style="stroke:#446E9B;stroke-width:1.0416666666666667;"/><line style="stroke:#446E9B;stroke-width:3.125;" x1="820.3125" x2="820.3125" y1="815.6713" y2="836.5046"/><polygon fill="#446E9B" points="816.1458,826.088,820.3125,836.5046,824.4792,826.088,820.3125,830.2546" style="stroke:#446E9B;stroke-width:1.0416666666666667;"/><line style="stroke:#446E9B;stroke-width:3.125;" x1="820.3125" x2="820.3125" y1="874.6129" y2="895.4463"/><polygon fill="#446E9B" points="816.1458,885.0296,820.3125,895.4463,824.4792,885.0296,820.3125,889.1963" style="stroke:#446E9B;stroke-width:1.0416666666666667;"/><line style="stroke:#446E9B;stroke-width:3.125;" x1="1084.375" x2="1084.375" y1="815.6713" y2="836.5046"/><polygon fill="#446E9B" points="1080.2083,826.088,1084.375,836.5046,1088.5417,826.088,1084.375,830.2546" style="stroke:#446E9B;stroke-width:1.0416666666666667;"/><line style="stroke:#446E9B;stroke-width:3.125;" x1="1084.375" x2="1084.375" y1="874.6129" y2="895.4463"/><polygon fill="#446E9B" points="1080.2083,885.0296,1084.375,895.4463,1088.5417,885.0296,1084.375,889.1963" style="stroke:#446E9B;stroke-width:1.0416666666666667;"/><line style="stroke:#446E9B;stroke-width:3.125;" x1="1291.6667" x2="1291.6667" y1="815.6713" y2="836.5046"/><polygon fill="#446E9B" points="1287.5,826.088,1291.6667,836.5046,1295.8333,826.088,1291.6667,830.2546" style="stroke:#446E9B;stroke-width:1.0416666666666667;"/><line style="stroke:#446E9B;stroke-width:3.125;" x1="1291.6667" x2="1291.6667" y1="874.6129" y2="895.4463"/><polygon fill="#446E9B" points="1287.5,885.0296,1291.6667,895.4463,1295.8333,885.0296,1291.6667,889.1963" style="stroke:#446E9B;stroke-width:1.0416666666666667;"/><line style="stroke:#446E9B;stroke-width:3.125;" x1="1522.9167" x2="1522.9167" y1="815.6713" y2="836.5046"/><polygon fill="#446E9B" points="1518.75,826.088,1522.9167,836.5046,1527.0833,826.088,1522.9167,830.2546" style="stroke:#446E9B;stroke-width:1.0416666666666667;"/><line style="stroke:#446E9B;stroke-width:3.125;" x1="1522.9167" x2="1522.9167" y1="874.6129" y2="895.4463"/><polygon fill="#446E9B" points="1518.75,885.0296,1522.9167,895.4463,1527.0833,885.0296,1522.9167,889.1963" style="stroke:#446E9B;stroke-width:1.0416666666666667;"/><line style="stroke:#446E9B;stroke-width:3.125;" x1="1753.125" x2="1753.125" y1="815.6713" y2="836.5046"/><polygon fill="#446E9B" points="1748.9583,826.088,1753.125,836.5046,1757.2917,826.088,1753.125,830.2546" style="stroke:#446E9B;stroke-width:1.0416666666666667;"/><line style="stroke:#446E9B;stroke-width:3.125;" x1="1753.125" x2="1753.125" y1="874.6129" y2="895.4463"/><polygon fill="#446E9B" points="1748.9583,885.0296,1753.125,895.4463,1757.2917,885.0296,1753.125,889.1963" style="stroke:#446E9B;stroke-width:1.0416666666666667;"/><line style="stroke:#446E9B;stroke-width:3.125;" x1="1993.2292" x2="1993.2292" y1="815.6713" y2="836.5046"/><polygon fill="#446E9B" points="1989.0625,826.088,1993.2292,836.5046,1997.3958,826.088,1993.2292,830.2546" style="stroke:#446E9B;stroke-width:1.0416666666666667;"/><line style="stroke:#446E9B;stroke-width:3.125;" x1="1993.2292" x2="1993.2292" y1="874.6129" y2="895.4463"/><polygon fill="#446E9B" points="1989.0625,885.0296,1993.2292,895.4463,1997.3958,885.0296,1993.2292,889.1963" style="stroke:#446E9B;stroke-width:1.0416666666666667;"/><line style="stroke:#446E9B;stroke-width:3.125;" x1="1032.8125" x2="116.6667" y1="711.9151" y2="711.9151"/><line style="stroke:#446E9B;stroke-width:3.125;" x1="116.6667" x2="116.6667" y1="711.9151" y2="777.563"/><polygon fill="#446E9B" points="112.5,767.1463,116.6667,777.563,120.8333,767.1463,116.6667,771.313" style="stroke:#446E9B;stroke-width:1.0416666666666667;"/><text fill="#FFFFFF" font-family="Verdana" font-size="12.5" lengthAdjust="spacing" textLength="38.5417" x="121.875" y="753.9734">Media</text><line style="stroke:#446E9B;stroke-width:3.125;" x1="1117.1875" x2="1993.2292" y1="711.9151" y2="711.9151"/><line style="stroke:#446E9B;stroke-width:3.125;" x1="1993.2292" x2="1993.2292" y1="711.9151" y2="777.563"/><polygon fill="#446E9B" points="1989.0625,767.1463,1993.2292,777.563,1997.3958,767.1463,1993.2292,771.313" style="stroke:#446E9B;stroke-width:1.0416666666666667;"/><text fill="#FFFFFF" font-family="Verdana" font-size="12.5" lengthAdjust="spacing" textLength="26.0417" x="1998.4375" y="753.9734">PCA</text><line style="stroke:#446E9B;stroke-width:3.125;" x1="320.3125" x2="320.3125" y1="711.9151" y2="777.563"/><polygon fill="#446E9B" points="316.1458,767.1463,320.3125,777.563,324.4792,767.1463,320.3125,771.313" style="stroke:#446E9B;stroke-width:1.0416666666666667;"/><text fill="#FFFFFF" font-family="Verdana" font-size="12.5" lengthAdjust="spacing" textLength="55.2083" x="325.5208" y="748.7651">Mediana</text><line style="stroke:#446E9B;stroke-width:3.125;" x1="545.8333" x2="545.8333" y1="711.9151" y2="777.563"/><polygon fill="#446E9B" points="541.6667,767.1463,545.8333,777.563,550,767.1463,545.8333,771.313" style="stroke:#446E9B;stroke-width:1.0416666666666667;"/><text fill="#FFFFFF" font-family="Verdana" font-size="12.5" lengthAdjust="spacing" textLength="35.4167" x="551.0417" y="748.7651">Moda</text><line style="stroke:#446E9B;stroke-width:3.125;" x1="820.3125" x2="820.3125" y1="711.9151" y2="777.563"/><polygon fill="#446E9B" points="816.1458,767.1463,820.3125,777.563,824.4792,767.1463,820.3125,771.313" style="stroke:#446E9B;stroke-width:1.0416666666666667;"/><text fill="#FFFFFF" font-family="Verdana" font-size="12.5" lengthAdjust="spacing" textLength="57.2917" x="825.5208" y="748.7651">Varianza</text><line style="stroke:#446E9B;stroke-width:3.125;" x1="1075" x2="1075" y1="724.7192" y2="745.1319"/><line style="stroke:#446E9B;stroke-width:3.125;" x1="1075" x2="1084.375" y1="745.1319" y2="745.1319"/><line style="stroke:#446E9B;stroke-width:3.125;" x1="1084.375" x2="1084.375" y1="745.1319" y2="777.563"/><polygon fill="#446E9B" points="1080.2083,767.1463,1084.375,777.563,1088.5417,767.1463,1084.375,771.313" style="stroke:#446E9B;stroke-width:1.0416666666666667;"/><text fill="#FFFFFF" font-family="Verdana" font-size="12.5" lengthAdjust="spacing" textLength="69.7917" x="1080.2083" y="755.1671">Desviaci&#243;n</text><line style="stroke:#446E9B;stroke-width:3.125;" x1="1291.6667" x2="1291.6667" y1="711.9151" y2="777.563"/><polygon fill="#446E9B" points="1287.5,767.1463,1291.6667,777.563,1295.8333,767.1463,1291.6667,771.313" style="stroke:#446E9B;stroke-width:1.0416666666666667;"/><text fill="#FFFFFF" font-family="Verdana" font-size="12.5" lengthAdjust="spacing" textLength="44.7917" x="1296.875" y="748.7651">ANOVA</text><line style="stroke:#446E9B;stroke-width:3.125;" x1="1522.9167" x2="1522.9167" y1="711.9151" y2="777.563"/><polygon fill="#446E9B" points="1518.75,767.1463,1522.9167,777.563,1527.0833,767.1463,1522.9167,771.313" style="stroke:#446E9B;stroke-width:1.0416666666666667;"/><text fill="#FFFFFF" font-family="Verdana" font-size="12.5" lengthAdjust="spacing" textLength="28.125" x="1528.125" y="748.7651">Chi&#178;</text><line style="stroke:#446E9B;stroke-width:3.125;" x1="1753.125" x2="1753.125" y1="711.9151" y2="777.563"/><polygon fill="#446E9B" points="1748.9583,767.1463,1753.125,777.563,1757.2917,767.1463,1753.125,771.313" style="stroke:#446E9B;stroke-width:1.0416666666666667;"/><text fill="#FFFFFF" font-family="Verdana" font-size="12.5" lengthAdjust="spacing" textLength="73.9583" x="1758.3333" y="748.7651">Correlaci&#243;n</text><line style="stroke:#446E9B;stroke-width:3.125;" x1="319.7917" x2="319.7917" y1="1074.0733" y2="1094.9066"/><polygon fill="#446E9B" points="315.625,1084.4899,319.7917,1094.9066,323.9583,1084.4899,319.7917,1088.6566" style="stroke:#446E9B;stroke-width:1.0416666666666667;"/><line style="stroke:#446E9B;stroke-width:3.125;" x1="319.7917" x2="319.7917" y1="1133.0149" y2="1153.8483"/><polygon fill="#446E9B" points="315.625,1143.4316,319.7917,1153.8483,323.9583,1143.4316,319.7917,1147.5983" style="stroke:#446E9B;stroke-width:1.0416666666666667;"/><line style="stroke:#446E9B;stroke-width:3.125;" x1="610.9375" x2="610.9375" y1="1074.0733" y2="1094.9066"/><polygon fill="#446E9B" points="606.7708,1084.4899,610.9375,1094.9066,615.1042,1084.4899,610.9375,1088.6566" style="stroke:#446E9B;stroke-width:1.0416666666666667;"/><line style="stroke:#446E9B;stroke-width:3.125;" x1="610.9375" x2="610.9375" y1="1133.0149" y2="1153.8483"/><polygon fill="#446E9B" points="606.7708,1143.4316,610.9375,1153.8483,615.1042,1143.4316,610.9375,1147.5983" style="stroke:#446E9B;stroke-width:1.0416666666666667;"/><line style="stroke:#446E9B;stroke-width:3.125;" x1="868.75" x2="868.75" y1="1074.0733" y2="1094.9066"/><polygon fill="#446E9B" points="864.5833,1084.4899,868.75,1094.9066,872.9167,1084.4899,868.75,1088.6566" style="stroke:#446E9B;stroke-width:1.0416666666666667;"/><line style="stroke:#446E9B;stroke-width:3.125;" x1="868.75" x2="868.75" y1="1133.0149" y2="1153.8483"/><polygon fill="#446E9B" points="864.5833,1143.4316,868.75,1153.8483,872.9167,1143.4316,868.75,1147.5983" style="stroke:#446E9B;stroke-width:1.0416666666666667;"/><line style="stroke:#446E9B;stroke-width:3.125;" x1="1111.9792" x2="1111.9792" y1="1074.0733" y2="1094.9066"/><polygon fill="#446E9B" points="1107.8125,1084.4899,1111.9792,1094.9066,1116.1458,1084.4899,1111.9792,1088.6566" style="stroke:#446E9B;stroke-width:1.0416666666666667;"/><line style="stroke:#446E9B;stroke-width:3.125;" x1="1111.9792" x2="1111.9792" y1="1133.0149" y2="1153.8483"/><polygon fill="#446E9B" points="1107.8125,1143.4316,1111.9792,1153.8483,1116.1458,1143.4316,1111.9792,1147.5983" style="stroke:#446E9B;stroke-width:1.0416666666666667;"/><line style="stroke:#446E9B;stroke-width:3.125;" x1="1356.25" x2="1356.25" y1="1074.0733" y2="1094.9066"/><polygon fill="#446E9B" points="1352.0833,1084.4899,1356.25,1094.9066,1360.4167,1084.4899,1356.25,1088.6566" style="stroke:#446E9B;stroke-width:1.0416666666666667;"/><line style="stroke:#446E9B;stroke-width:3.125;" x1="1356.25" x2="1356.25" y1="1133.0149" y2="1153.8483"/><polygon fill="#446E9B" points="1352.0833,1143.4316,1356.25,1153.8483,1360.4167,1143.4316,1356.25,1147.5983" style="stroke:#446E9B;stroke-width:1.0416666666666667;"/><line style="stroke:#446E9B;stroke-width:3.125;" x1="1618.75" x2="1618.75" y1="1074.0733" y2="1094.9066"/><polygon fill="#446E9B" points="1614.5833,1084.4899,1618.75,1094.9066,1622.9167,1084.4899,1618.75,1088.6566" style="stroke:#446E9B;stroke-width:1.0416666666666667;"/><line style="stroke:#446E9B;stroke-width:3.125;" x1="1618.75" x2="1618.75" y1="1133.0149" y2="1153.8483"/><polygon fill="#446E9B" points="1614.5833,1143.4316,1618.75,1153.8483,1622.9167,1143.4316,1618.75,1147.5983" style="stroke:#446E9B;stroke-width:1.0416666666666667;"/><line style="stroke:#446E9B;stroke-width:3.125;" x1="1871.875" x2="1871.875" y1="1074.0733" y2="1094.9066"/><polygon fill="#446E9B" points="1867.7083,1084.4899,1871.875,1094.9066,1876.0417,1084.4899,1871.875,1088.6566" style="stroke:#446E9B;stroke-width:1.0416666666666667;"/><line style="stroke:#446E9B;stroke-width:3.125;" x1="1871.875" x2="1871.875" y1="1133.0149" y2="1153.8483"/><polygon fill="#446E9B" points="1867.7083,1143.4316,1871.875,1153.8483,1876.0417,1143.4316,1871.875,1147.5983" style="stroke:#446E9B;stroke-width:1.0416666666666667;"/><line style="stroke:#446E9B;stroke-width:3.125;" x1="1032.8125" x2="319.7917" y1="970.3171" y2="970.3171"/><line style="stroke:#446E9B;stroke-width:3.125;" x1="319.7917" x2="319.7917" y1="970.3171" y2="1035.965"/><polygon fill="#446E9B" points="315.625,1025.5483,319.7917,1035.965,323.9583,1025.5483,319.7917,1029.715" style="stroke:#446E9B;stroke-width:1.0416666666666667;"/><text fill="#FFFFFF" font-family="Verdana" font-size="12.5" lengthAdjust="spacing" textLength="139.5833" x="325" y="1012.3754">Media/Mediana/Moda</text><line style="stroke:#446E9B;stroke-width:3.125;" x1="1117.1875" x2="1871.875" y1="970.3171" y2="970.3171"/><line style="stroke:#446E9B;stroke-width:3.125;" x1="1871.875" x2="1871.875" y1="970.3171" y2="1035.965"/><polygon fill="#446E9B" points="1867.7083,1025.5483,1871.875,1035.965,1876.0417,1025.5483,1871.875,1029.715" style="stroke:#446E9B;stroke-width:1.0416666666666667;"/><text fill="#FFFFFF" font-family="Verdana" font-size="12.5" lengthAdjust="spacing" textLength="26.0417" x="1877.0833" y="1012.3754">PCA</text><line style="stroke:#446E9B;stroke-width:3.125;" x1="610.9375" x2="610.9375" y1="970.3171" y2="1035.965"/><polygon fill="#446E9B" points="606.7708,1025.5483,610.9375,1035.965,615.1042,1025.5483,610.9375,1029.715" style="stroke:#446E9B;stroke-width:1.0416666666666667;"/><text fill="#FFFFFF" font-family="Verdana" font-size="12.5" lengthAdjust="spacing" textLength="57.2917" x="616.1458" y="1007.1671">Varianza</text><line style="stroke:#446E9B;stroke-width:3.125;" x1="868.75" x2="868.75" y1="970.3171" y2="1035.965"/><polygon fill="#446E9B" points="864.5833,1025.5483,868.75,1035.965,872.9167,1025.5483,868.75,1029.715" style="stroke:#446E9B;stroke-width:1.0416666666666667;"/><text fill="#FFFFFF" font-family="Verdana" font-size="12.5" lengthAdjust="spacing" textLength="69.7917" x="873.9583" y="1007.1671">Desviaci&#243;n</text><line style="stroke:#446E9B;stroke-width:3.125;" x1="1075" x2="1075" y1="983.1212" y2="1003.5339"/><line style="stroke:#446E9B;stroke-width:3.125;" x1="1075" x2="1111.9792" y1="1003.5339" y2="1003.5339"/><line style="stroke:#446E9B;stroke-width:3.125;" x1="1111.9792" x2="1111.9792" y1="1003.5339" y2="1035.965"/><polygon fill="#446E9B" points="1107.8125,1025.5483,1111.9792,1035.965,1116.1458,1025.5483,1111.9792,1029.715" style="stroke:#446E9B;stroke-width:1.0416666666666667;"/><text fill="#FFFFFF" font-family="Verdana" font-size="12.5" lengthAdjust="spacing" textLength="44.7917" x="1080.2083" y="1013.5691">ANOVA</text><line style="stroke:#446E9B;stroke-width:3.125;" x1="1356.25" x2="1356.25" y1="970.3171" y2="1035.965"/><polygon fill="#446E9B" points="1352.0833,1025.5483,1356.25,1035.965,1360.4167,1025.5483,1356.25,1029.715" style="stroke:#446E9B;stroke-width:1.0416666666666667;"/><text fill="#FFFFFF" font-family="Verdana" font-size="12.5" lengthAdjust="spacing" textLength="28.125" x="1361.4583" y="1007.1671">Chi&#178;</text><line style="stroke:#446E9B;stroke-width:3.125;" x1="1618.75" x2="1618.75" y1="970.3171" y2="1035.965"/><polygon fill="#446E9B" points="1614.5833,1025.5483,1618.75,1035.965,1622.9167,1025.5483,1618.75,1029.715" style="stroke:#446E9B;stroke-width:1.0416666666666667;"/><text fill="#FFFFFF" font-family="Verdana" font-size="12.5" lengthAdjust="spacing" textLength="73.9583" x="1623.9583" y="1007.1671">Correlaci&#243;n</text><line style="stroke:#446E9B;stroke-width:3.125;" x1="1075" x2="1075" y1="1214.8733" y2="1235.7066"/><polygon fill="#446E9B" points="1070.8333,1225.2899,1075,1235.7066,1079.1667,1225.2899,1075,1229.4566" style="stroke:#446E9B;stroke-width:1.0416666666666667;"/><line style="stroke:#446E9B;stroke-width:3.125;" x1="790.625" x2="790.625" y1="1336.9232" y2="1357.7566"/><polygon fill="#446E9B" points="786.4583,1347.3399,790.625,1357.7566,794.7917,1347.3399,790.625,1351.5066" style="stroke:#446E9B;stroke-width:1.0416666666666667;"/><line style="stroke:#446E9B;stroke-width:3.125;" x1="1009.8958" x2="1009.8958" y1="1336.9232" y2="1357.7566"/><polygon fill="#446E9B" points="1005.7292,1347.3399,1009.8958,1357.7566,1014.0625,1347.3399,1009.8958,1351.5066" style="stroke:#446E9B;stroke-width:1.0416666666666667;"/><line style="stroke:#446E9B;stroke-width:3.125;" x1="790.625" x2="790.625" y1="1395.8649" y2="1416.6982"/><polygon fill="#446E9B" points="786.4583,1406.2815,790.625,1416.6982,794.7917,1406.2815,790.625,1410.4482" style="stroke:#446E9B;stroke-width:1.0416666666666667;"/><line style="stroke:#446E9B;stroke-width:3.125;" x1="1009.8958" x2="1009.8958" y1="1395.8649" y2="1416.6982"/><polygon fill="#446E9B" points="1005.7292,1406.2815,1009.8958,1416.6982,1014.0625,1406.2815,1009.8958,1410.4482" style="stroke:#446E9B;stroke-width:1.0416666666666667;"/><line style="stroke:#446E9B;stroke-width:3.125;" x1="975" x2="894.7917" y1="1307.4524" y2="1307.4524"/><line style="stroke:#446E9B;stroke-width:3.125;" x1="894.7917" x2="894.7917" y1="1307.4524" y2="1330.6732"/><polygon fill="#446E9B" points="890.625,1320.2566,894.7917,1330.6732,898.9583,1320.2566,894.7917,1324.4232" style="stroke:#446E9B;stroke-width:1.0416666666666667;"/><line style="stroke:#446E9B;stroke-width:3.125;" x1="1175" x2="1255.2083" y1="1307.4524" y2="1307.4524"/><line style="stroke:#446E9B;stroke-width:3.125;" x1="1255.2083" x2="1255.2083" y1="1307.4524" y2="1330.6732"/><polygon fill="#446E9B" points="1251.0417,1320.2566,1255.2083,1330.6732,1259.375,1320.2566,1255.2083,1324.4232" style="stroke:#446E9B;stroke-width:1.0416666666666667;"/><line style="stroke:#446E9B;stroke-width:3.125;" x1="894.7917" x2="894.7917" y1="1422.9482" y2="1445.8649"/><line style="stroke:#446E9B;stroke-width:3.125;" x1="894.7917" x2="1062.5" y1="1445.8649" y2="1445.8649"/><polygon fill="#446E9B" points="1052.0833,1441.6982,1062.5,1445.8649,1052.0833,1450.0315,1056.25,1445.8649" style="stroke:#446E9B;stroke-width:1.0416666666666667;"/><line style="stroke:#446E9B;stroke-width:3.125;" x1="1255.2083" x2="1255.2083" y1="1368.7815" y2="1445.8649"/><line style="stroke:#446E9B;stroke-width:3.125;" x1="1255.2083" x2="1087.5" y1="1445.8649" y2="1445.8649"/><polygon fill="#446E9B" points="1097.9167,1441.6982,1087.5,1445.8649,1097.9167,1450.0315,1093.75,1445.8649" style="stroke:#446E9B;stroke-width:1.0416666666666667;"/><line style="stroke:#446E9B;stroke-width:3.125;" x1="1075" x2="1075" y1="1273.8149" y2="1294.6482"/><polygon fill="#446E9B" points="1070.8333,1284.2316,1075,1294.6482,1079.1667,1284.2316,1075,1288.3982" style="stroke:#446E9B;stroke-width:1.0416666666666667;"/><line style="stroke:#446E9B;stroke-width:3.125;" x1="1075" x2="1075" y1="1458.3649" y2="1479.1982"/><polygon fill="#446E9B" points="1070.8333,1468.7815,1075,1479.1982,1079.1667,1468.7815,1075,1472.9482" style="stroke:#446E9B;stroke-width:1.0416666666666667;"/><!--SRC=[dLR1SXCv4BtFLpHS65THIorxSqv93Acjmi55871jIsrRMOqq9Mcy8Ljy34SEFknouyZysBOqbcTYC6Muf6ofyzvJz-jkFmWhgWXyZO8qpeiYgA097ZxNpOs59Hbog44IN0KCvwW5p9nzM1G-e0j5CNxZ6tJAWZB1MTa80ed1Uh3WIPCGoXe4kg6grlQa6CyS-NGqjw7zRE1HX6mqkaSdHL4pf0fy3HKgyzkDXtyAWF4Bog2ID0YiQXi51ReD3Ca1B-T1iL2esa_1oY6px09UQAmG4DQebKHtuPhQ-fbrKuhnvUYa-50KQW7bTGeGAaeJrZaI0KV0AJ9GNhMRKGIRK21NgVWilQCapeTiDpuemPIaFK5vQLFyjE5Bn_HoJIwG4GgJg6U-vjmwC0sj-LPqhF69JPVJ6EM3hGioKYs6wH4fQTRd5Fc_LH0hAAUTcaWB71H5J4agx0wOiuhVIdGEtuzEyk6s150x6-ztLSy1SqVurpwasGCrty3cgl23EE_MWI3so0zWhHnWyfTzm3yb0wY54jXZLkr73mkkKyDtT0ZwcjE9vgw7NsyFzYccYet5gP0g5iUdYh1ZQ_Q1PV_mJNhi8Pu9-RNgxBEZajipQ_R9Nc6xkGFHe7Ge4JhchEmGnUdbo-lJ7JWQkyPocVpyRK6lhiuUyv-ty1wU7y8xNwcl_-tmn4gTTtfi6N2kiGTznWbllo0tkgIQ7PcC74KB3BIqhjsWFqWIMqdl9KRaGyxCxUFl-D55z1cXyzOSGfwTzyce1PR2ydGmqGk3V4mnE7MNjDgSNyz9aRcJlsCTVc7NLN4qz9stT1WDU7JdFTasovDxxjwYk3FqF2_ANkc5QpycWxFMUR8B2nNCgzkDeNJiQ45kDqMESdkconS3mbbZuc3jAJoiC1RsLwoUUIQzvNkcCpHiSc-hYCIVllxxEyWUv3Y_PuRJvFi1kBtb_H8WbXyTC_4GIqrndEqpB9y-lITvMm6ibMRDSG7bOSCv-ZcxxpW6jk-f9eE1Sx_U8VVQCIsGIVZi0FZJ2Q_cFoPnN_EC5q6jyOVM7qzjt5ukZi56yvAplB1uwpasBaV6IPmcs70bZrz5pTno_6_Bx6Wcvgnp8t7hZ3eDvOnhfcFdf-MRVqgmAzBJFJzaYMvl_owiwrxFYtWRqMlpKBv-zpgzFCO1Blc7n7xqJb8vkxn8iIotmxstk8zOqDlDdBRq_m00]--></g></svg>